<?xml version="1.0" encoding="UTF-8"?>
<svg id="Capa_1" xmlns="http://www.w3.org/2000/svg" viewBox="0 0 190.16 177.93">
  <defs>
    <style>
      .cls-1 {
        fill: #fff;
      }
    </style>
  </defs>
  <path class="cls-1" d="M34.17,154.97c15,12.94,41.56,7.85,50.56-9.72,2.71-5.29,2.93-10.98,2.23-16.74-1.54-12.67-6.96-24.05-11.89-35.58-4.79-11.21-9.49-22.44-11.78-34.49C57.57,28.2,79.47,1.11,110.45.04c17.65-.61,31.99,6.79,44.64,18.31,1.93,1.75,3.66,3.72,5.48,5.59.15.74-.16,1.06-.9.98-9.26-6.65-19.24-9.81-30.55-6.16-17.01,5.49-24.19,19.4-19.75,37.83,2.91,12.07,8.53,23.06,13.28,34.4,4.71,11.27,8.67,22.75,9.72,35.09,1.47,17.22-5.15,30.51-18.89,40.54-23.37,17.07-49.92,13.78-71.37-3-3.22-2.52-6.15-5.42-9.22-8.15-.12-.49,0-.85.54-.98.42-.11.56.21.74.48Z"/>
  <path class="cls-1" d="M77.43,119.76c.39,5.45.55,10.41-.83,15.26-3.84,13.54-18.81,20.51-32.67,15.19-8.46-3.25-15.38-8.53-20.44-16.12C9.04,112.42.13,88.94,0,62.54c-.02-3.23.6-4.58,4.26-4.48,10.19.27,20.39.21,30.59.03,3.1-.06,3.96.85,3.96,3.96.02,18.75,4.72,36.14,15.65,51.59,2.01,2.84,4.21,5.51,7.04,7.65,5.44,4.1,8.95,3.88,15.94-1.52Z"/>
  <path class="cls-1" d="M117.52,57.01c-3.83-18.66,12.98-33.69,31.29-28.02,12.73,3.95,20.83,13.01,27.07,24.24,8.53,15.37,13.6,31.72,14.28,49.37.09,2.43-.34,3.62-3.18,3.58-10.7-.15-21.41-.14-32.11,0-2.57.03-3.36-.83-3.62-3.34-1.37-13.52-4.83-26.41-12.24-38.01-2.02-3.16-4.21-6.2-7.29-8.41-4.91-3.53-7.66-3.37-14.21.59Z"/>
  <path class="cls-1" d="M159.67,24.91c.3-.33.6-.65.9-.98,2.29,1.43,3.64,3.65,4.54,6.39-1.81-1.8-3.63-3.6-5.44-5.41Z"/>
  <path class="cls-1" d="M34.17,154.97c-.5,0-1.01-.04-1.29.51-1.77-.76-2.7-2.25-3.52-3.89,2.19.38,3.43,1.98,4.81,3.39Z"/>
</svg>